<?xml version="1.0" standalone="no"?>
<!DOCTYPE svg PUBLIC "-//W3C//DTD SVG 20010904//EN"
 "http://www.w3.org/TR/2001/REC-SVG-20010904/DTD/svg10.dtd">
<svg version="1.0" xmlns="http://www.w3.org/2000/svg"
 width="700.000000pt" height="700.000000pt" viewBox="0 0 700.000000 700.000000"
 preserveAspectRatio="xMidYMid meet">
<metadata>
Created by potrace 1.14, written by Peter Selinger 2001-2017
</metadata>
<g transform="translate(0.000000,700.000000) scale(0.100000,-0.100000)"
fill="#000000" stroke="none">
<path d="M4410 5767 c-18 -34 -61 -114 -95 -177 -34 -63 -84 -155 -110 -205
-26 -49 -56 -103 -65 -120 -9 -16 -39 -70 -65 -120 -26 -49 -76 -142 -110
-205 -34 -63 -81 -151 -105 -195 -24 -44 -54 -100 -68 -125 -13 -25 -58 -108
-99 -185 -42 -77 -92 -169 -111 -205 -19 -36 -53 -99 -75 -140 -22 -41 -51
-95 -65 -120 -14 -25 -45 -83 -70 -130 -24 -47 -57 -107 -72 -135 -15 -27
-107 -198 -205 -380 -178 -330 -221 -411 -267 -495 -14 -25 -47 -85 -73 -135
-26 -49 -51 -94 -55 -98 -4 -5 -29 33 -55 85 -26 51 -96 188 -155 303 -59 116
-174 341 -255 500 -81 160 -189 371 -240 470 -51 99 -114 222 -139 274 -43 85
-49 92 -60 75 -13 -19 -30 -50 -148 -267 -32 -58 -69 -125 -82 -149 -27 -49
-301 -557 -458 -848 -58 -107 -147 -274 -198 -370 -164 -311 -182 -344 -220
-415 -191 -357 -317 -598 -344 -657 -36 -79 -57 -178 -58 -272 -1 -234 169
-416 422 -451 48 -6 5637 -7 5675 0 17 3 46 8 65 11 107 17 221 75 295 149 67
66 99 124 111 200 22 138 -7 236 -137 475 -17 30 -51 93 -76 140 -24 47 -58
110 -74 140 -17 30 -69 127 -116 215 -48 88 -96 178 -108 200 -12 22 -37 67
-55 100 -18 33 -43 78 -55 100 -12 22 -36 65 -52 95 -17 30 -54 98 -83 150
-29 52 -66 120 -83 150 -16 30 -51 93 -77 140 -26 47 -63 114 -82 150 -39 71
-45 83 -173 315 -79 144 -241 437 -550 995 -60 107 -122 220 -139 250 -16 30
-39 71 -51 91 -11 20 -38 70 -61 110 -78 140 -97 174 -159 284 -34 61 -74 133
-90 160 -34 61 -186 329 -189 332 -1 2 -17 -25 -36 -60z"/>
</g>
</svg>
